<svg style="display: none" version="1.1" xmlns="http://www.w3.org/2000/svg" xlink="http://www.w3.org/1999/xlink"><symbol viewBox="0 0 21.706 41.719" id="icon-review-arrow-left"><title>icon-review-arrow-left</title> <path d="M2.045,20.859L21.458,1.446c0.331-0.331,0.331-0.867,0-1.198c-0.33-0.331-0.867-0.331-1.197,0L0.248,20.261
	c-0.331,0.33-0.331,0.867,0,1.197l20.013,20.013c0.164,0.165,0.382,0.248,0.599,0.248s0.434-0.083,0.599-0.248
	c0.331-0.331,0.331-0.867,0-1.198L2.045,20.859z"/> </symbol><symbol viewBox="0 0 21.706 41.719" id="icon-review-arrow-right"><title>icon-review-arrow-right</title> <path d="M19.661,20.859L0.248,1.446c-0.331-0.331-0.331-0.867,0-1.198c0.33-0.331,0.867-0.331,1.197,0l20.013,20.012
	c0.33,0.33,0.33,0.867,0,1.197L1.445,41.471c-0.164,0.165-0.382,0.248-0.599,0.248s-0.434-0.083-0.599-0.248
	c-0.331-0.331-0.331-0.867,0-1.198L19.661,20.859z"/> </symbol><symbol viewBox="0 0 26.943 34.09" id="logo-htmlacademy"><title>logo-htmlacademy</title> <path d="M13.62,0.017L13.472,0L0,1.412v24.661l13.472,8.017l13.43-7.99l0.042-0.026V1.412L13.62,0.017z M25.019,12.127L13.495,5.334
	l-0.001-0.104L13.407,5.28l-0.088-0.056v0.109L1.925,12.118V3.147l11.547-1.212l11.547,1.212V12.127z M13.405,6.787L24.923,13.5
	l-4.479,2.64l-7.093-4.221l-0.013,1.415l5.904,3.513l-0.86,0.507l-5.031-2.992l-0.013,1.415l3.827,2.275l-0.782,0.523l-3.032-1.787
	l-0.013,1.413l1.852,1.091l-1.8,1.081L2.034,13.622L13.405,6.787z M1.925,15.127l11.411,6.791l0.015,1.044l-7.941-4.728L5.395,19.65
	l7.979,4.796l0.017,1.076l-7.972-4.741l-0.013,1.415l8.021,4.821l0.045,0.026l8.143-4.872v-1.268l-0.011-0.148v-3.761l3.415-2.036
	v10.02L13.472,31.85L1.925,24.979V15.127z"/> </symbol></svg>